<svg height="512" viewBox="0 0 512 512" width="512" xmlns="http://www.w3.org/2000/svg" xmlns:xlink="http://www.w3.org/1999/xlink"><linearGradient id="New_Gradient_Swatch_13" gradientUnits="userSpaceOnUse" x1="116.918" x2="395.082" y1="357.029" y2="78.866"><stop offset="0" stop-color="#d46669"/><stop offset="1" stop-color="#dd888a"/></linearGradient><linearGradient id="New_Gradient_Swatch_22" gradientUnits="userSpaceOnUse" x1="165.49" x2="346.51" y1="290.51" y2="109.49"><stop offset=".011" stop-color="#dcdce3"/><stop offset="1" stop-color="#ededf1"/></linearGradient><linearGradient id="New_Gradient_Swatch_3" gradientUnits="userSpaceOnUse" x1="200" x2="312" y1="272" y2="160"><stop offset=".011" stop-color="#606082"/><stop offset="1" stop-color="#83839e"/></linearGradient><g id="_01-home" data-name="01-home"><g id="linear_color" data-name="linear color"><path d="m72 200a184 184 0 0 1 368 0c0 120-184 296-184 296s-184-176-184-296z" fill="url(#New_Gradient_Swatch_13)"/><circle cx="256" cy="200" fill="url(#New_Gradient_Swatch_22)" r="128"/><path d="m256 112-88 80h24v72h44v-48h40v48h44v-72h24z" fill="url(#New_Gradient_Swatch_3)"/><path d="m256 4c-108.075 0-196 87.925-196 196 0 52.5 31.807 119.92 94.537 200.378a1065.816 1065.816 0 0 0 93.169 104.294 12 12 0 0 0 16.588 0 1065.816 1065.816 0 0 0 93.169-104.294c62.73-80.458 94.537-147.878 94.537-200.378 0-108.075-87.925-196-196-196zm0 475.111c-35.419-35.703-172-179.843-172-279.111 0-94.841 77.159-172 172-172s172 77.159 172 172c0 99.268-136.581 243.408-172 279.111z"/><path d="m256 60c-77.2 0-140 62.8-140 140s62.8 140 140 140 140-62.8 140-140-62.8-140-140-140zm0 256a116 116 0 1 1 116-116 116.132 116.132 0 0 1 -116 116z"/><path d="m352.072 183.121-88-80a12 12 0 0 0 -16.144 0l-88 80a12 12 0 0 0 8.072 20.879h12v60a12 12 0 0 0 12 12h44a12 12 0 0 0 12-12v-36h16v36a12 12 0 0 0 12 12h44a12 12 0 0 0 12-12v-60h12a12 12 0 0 0 8.072-20.879zm-44.072 8.879v60h-20v-36a12 12 0 0 0 -12-12h-40a12 12 0 0 0 -12 12v36h-20v-60a12 12 0 0 0 -6.453-10.644l58.453-53.139 58.453 53.139a12 12 0 0 0 -6.453 10.644z"/></g></g></svg>